<?xml version="1.0" encoding="UTF-8"?>
<svg id="Layer_2" data-name="Layer 2" xmlns="http://www.w3.org/2000/svg" viewBox="0 0 212 125.42">
  <defs>
    <style>
      .cls-1 {
        opacity: .3;
      }

      .cls-2 {
        fill-rule: evenodd;
      }

      .cls-2, .cls-3 {
        fill: #fff;
        stroke-width: 0px;
      }
    </style>
  </defs>
  <g id="FOOLIUMTRÜKK">
    <g class="cls-1">
      <path class="cls-2" d="m104.64,30.37c1.05-2.85,2.1-5.7,3.15-8.55.14-.37.2-.81.44-1.08.3-.33.77-.5,1.16-.74.15.47.55,1.02.43,1.4-.63,1.94-1.38,3.84-2.09,5.76-.77,2.08-1.55,4.15-2.32,6.23-.12.32-.27.7-.19,1,.73,2.75,1.51,5.49,2.54,8.17,1.31-5.35,2.62-10.7,3.94-16.05.69-2.78,1.45-5.55,2.09-8.34.22-.95.3-1.98.2-2.94-.46-4.15-1.01-8.29-1.52-12.42-.03-.26-.15-.55-.07-.77.18-.46.46-.88.7-1.31.35.36.94.67,1,1.08.41,2.66.71,5.34,1.04,8.01.07.51.14,1.02.45,1.57.46-1.67.91-3.33,1.36-5,.45-1.68.9-3.36,1.35-5.04.18-.66.25-1.56,1.23-1.32,1.1.27.64,1.16.47,1.83-.92,3.53-1.88,7.05-2.89,10.84.39-.34.61-.49.78-.68,1.96-2.26,3.89-4.56,5.89-6.78.35-.38,1.28-.77,1.56-.58.83.55.21,1.21-.24,1.73-2.57,3-5.12,6.02-7.75,8.97-.92,1.04-1.6,2.12-1.87,3.49-.26,1.32-.65,2.61-1.08,4.32.68-.76,1.13-1.23,1.54-1.72,2.79-3.33,5.57-6.67,8.35-10,.11-.13.24-.25.35-.39.42-.53.98-.94,1.49-.32.22.26.11,1.09-.16,1.42-1.72,2.18-3.53,4.29-5.32,6.42-2.23,2.66-4.46,5.32-6.68,8-.35.43-.68.93-.81,1.45-1.23,4.97-2.41,9.96-3.6,14.95-.05.2-.04.42-.09.87,2.66-2.78,5.09-5.5,7.71-8.01,1.63-1.57,2.44-3.3,2.64-5.54.29-3.28.82-6.55,1.3-9.81.07-.45.37-1.03.73-1.23.66-.35,1.16.33,1.02,1.41-.4,3.06-.82,6.11-1.23,9.17-.05.33-.07.67-.13,1.28.44-.42.73-.67,1-.95,2.55-2.67,5.07-5.36,7.66-7.99.3-.31.95-.27,1.44-.39-.06.53-.07,1.07-.19,1.59-.05.22-.33.38-.51.57-2.04,2.13-4.08,4.26-6.12,6.41-.33.34-.62.69-.81,1.28,2.07-.69,4.13-1.41,6.21-2.04.73-.22,1.8-1.09,2.21.19.41,1.26-.96,1.21-1.68,1.47-2.21.79-4.42,1.62-6.69,2.22-2.31.61-4.1,1.81-5.69,3.59-2.92,3.27-6.03,6.37-9.03,9.57-.37.39-.75.9-.83,1.41-1.02,5.86-1.98,11.73-2.94,17.59-.02.11.03.24.08.66,1.36-1.9,2.59-3.6,3.81-5.3.43-.6.77-1.28,1.27-1.82,2.29-2.48,3.15-5.48,3.44-8.76.18-2.03.61-4.03.91-6.06.11-.71.16-1.53,1.14-1.37.9.16.71.93.61,1.58-.37,2.4-.73,4.8-1.14,7.53,1.1-1.33,1.99-2.42,2.91-3.51,3.19-3.77,6.84-7.02,10.91-9.81.25-.17.5-.45.77-.47.38-.04.78.11,1.17.18-.07.43-.04.92-.26,1.25-.22.34-.68.52-1.04.77-3.4,2.36-6.51,5.04-9.15,8.35.35-.14.71-.28,1.06-.42.4-.17.8-.34,1.2-.51,2.53-1.05,5.04-2.15,7.59-3.13.44-.17,1.35-.07,1.53.23.47.77-.23,1.12-.87,1.38-4.09,1.71-8.19,3.39-12.26,5.16-.75.33-1.5.89-1.99,1.55-2.48,3.34-4.87,6.74-7.12,10.29.49-.33.98-.65,1.46-.99,6.31-4.34,13.41-6.72,20.78-8.44,2.37-.56,4.76-1.04,7.14-1.52.72-.14,1.73-.59,1.92.57.19,1.16-.95,1.02-1.65,1.17-4.06.92-8.13,1.81-12.19,2.71,0,.12.01.25.02.37.97.18,1.94.37,2.91.54,2.23.38,4.45.75,6.68,1.13.72.12,1.68.12,1.48,1.18-.17.97-1.04.68-1.71.57-4.07-.68-8.13-1.41-12.21-2.04-.81-.12-1.74-.03-2.5.25-6.24,2.31-11.67,5.94-16.49,10.49-.36.34-.62.94-.65,1.44-.42,6.63-.09,13.2,1.87,19.61.2.66.38,1.43-.53,1.53-.35.04-1.01-.59-1.14-1.04-2.06-6.56-2.45-13.31-1.96-20.11.16-2.23-.92-4.02-1.55-5.97-.06-.21-.34-.38-.56-.49-1.92-1.01-3.8-1.91-6.12-1.9-4.08,0-8.15-.29-12.23-.54-.51-.03-1.38-.52-1.41-.86-.09-.98.77-.92,1.49-.89,3.08.15,6.16.28,9.24.42.33.01.66,0,1.09-.25-.52-.25-1.04-.49-1.55-.74-3.85-1.92-7.7-3.84-11.56-5.76-.61-.3-1.32-.67-.79-1.42.2-.27,1.12-.32,1.54-.11,6.09,2.97,12.16,6.01,18.23,9.02.41.21.83.4,1.63.78-1.07-2.53-2.14-4.66-2.88-6.9-.78-2.38-2.31-3.63-4.64-4.37-2.69-.85-5.28-2.02-7.91-3.05-.63-.24-1.34-.53-.99-1.37.34-.84,1.03-.54,1.66-.29,2.54,1.02,5.09,2.02,7.63,3.03.44.17.88.31,1.52.22-.35-.39-.66-.82-1.06-1.16-4.44-3.75-8.9-7.5-13.35-11.24-.23-.19-.58-.35-.67-.6-.15-.42-.15-.9-.21-1.35.46.02,1.06-.14,1.35.09,2.17,1.73,4.28,3.54,6.41,5.33,1.49,1.24,2.98,2.49,4.65,3.59-.39-.71-.77-1.44-1.18-2.14-2.5-4.17-5.01-8.34-7.53-12.51-.37-.62-.85-1.33.04-1.74.31-.14,1.18.38,1.45.82,3.21,5.21,6.35,10.46,9.59,15.83.1-.78.2-1.51.28-2.25.28-2.76.51-5.54.87-8.29.07-.51.62-1.34.96-1.35,1.01-.02.83.88.76,1.56-.4,4.06-.86,8.12-1.19,12.19-.07.85.13,1.81.47,2.59,1.72,3.9,3.52,7.75,5.43,11.64-.05-.43-.11-.86-.15-1.28-.4-4.62-.79-9.25-1.17-13.87-.03-.34-.08-.77.08-1.02.2-.31.61-.63.95-.65.23-.02.6.43.71.74.12.35.04.77.03,1.16-.09,4.97.54,9.86,1.45,15.14.2-.61.31-.84.36-1.09.77-4.14,1.55-8.28,2.28-12.43.1-.56.03-1.2-.13-1.76-1.03-3.45-2.1-6.9-3.19-10.34-.18-.56-.45-1.13-.8-1.6-2.73-3.65-5.49-7.28-8.24-10.92-.16-.21-.42-.39-.46-.62-.08-.5-.05-1.01-.07-1.51.5.16,1.04.26,1.5.51.28.15.43.53.64.81,2.07,2.73,4.13,5.46,6.37,8.41-.01-.44-.01-.63-.02-.82-.35-6.55-.71-13.09-1.06-19.63-.04-.7-.06-1.59.93-1.46.33.04.78.93.81,1.44.13,2.9.14,5.8.47,8.78.29-.9.59-1.78.86-2.68.44-1.46.86-2.91,1.29-4.37.19-.67.32-1.52,1.3-1.21.99.31.55,1.14.37,1.77-1.06,3.67-2.06,7.36-3.25,10.99-.84,2.56.09,4.95.51,7.46Z"/>
      <g>
        <path class="cls-3" d="m16.47,123.91c-2.06-4.06-4.15-8.1-6.26-12.14-.72,1.69-1.43,3.39-2.14,5.08.31,2.64.63,5.28.95,7.92-1.77.21-3.53.43-5.29.65-1.24-9.82-2.48-19.65-3.72-29.47,1.83-.23,3.66-.46,5.48-.67.35,2.91.7,5.81,1.04,8.72.11.87.19,1.68.27,2.43.07.75.14,1.45.18,2.09.24-.66.53-1.43.86-2.32.33-.89.66-1.73.98-2.51,1.24-3.08,2.5-6.15,3.77-9.23,1.95-.21,3.89-.43,5.84-.63-1.8,3.91-3.57,7.83-5.31,11.75,3.15,5.89,6.24,11.78,9.27,17.7-1.98.2-3.96.41-5.93.63Z"/>
        <path class="cls-3" d="m47.15,106.17c.15,2.15.1,4.17-.15,6.05-.25,1.89-.74,3.56-1.44,5-.71,1.44-1.66,2.61-2.84,3.5-1.19.89-2.64,1.4-4.36,1.54-1.73.14-3.24-.12-4.56-.8-1.32-.67-2.44-1.66-3.36-2.96-.92-1.29-1.67-2.85-2.23-4.67-.56-1.82-.95-3.79-1.15-5.9-.2-2.14-.2-4.16.02-6.05.21-1.9.68-3.57,1.38-5.03.7-1.45,1.67-2.64,2.9-3.54,1.23-.91,2.75-1.44,4.54-1.58,1.79-.15,3.36.13,4.69.81,1.34.69,2.46,1.69,3.39,3,.92,1.31,1.64,2.88,2.16,4.71.53,1.84.86,3.81,1.01,5.93Zm-5.53.5c-.25-3.16-.79-5.59-1.64-7.29-.85-1.71-2.1-2.5-3.73-2.36-1.66.14-2.76,1.11-3.29,2.9-.53,1.8-.65,4.27-.37,7.43.28,3.16.85,5.58,1.7,7.28.85,1.7,2.09,2.48,3.71,2.35,1.59-.13,2.65-1.09,3.19-2.88.53-1.79.68-4.26.44-7.42Z"/>
        <path class="cls-3" d="m56.27,120.5c-.6-9.88-1.21-19.77-1.81-29.65,1.85-.11,3.7-.22,5.55-.32.44,8.15.89,16.3,1.33,24.45,3.12-.17,6.25-.32,9.37-.46.07,1.74.15,3.48.22,5.22-4.89.21-9.78.46-14.67.76Z"/>
        <path class="cls-3" d="m95.57,119.05c-.04-3.19-.08-6.39-.12-9.59-.02-1.78-.04-3.45-.04-5.01,0-1.56,0-2.89.01-3.99-.31,1.08-.68,2.4-1.12,3.96-.44,1.56-.93,3.2-1.48,4.9-1.11,3.53-2.2,7.06-3.28,10.58-1.22-3.48-2.45-6.96-3.7-10.44-.59-1.68-1.14-3.29-1.66-4.84-.52-1.54-.95-2.85-1.3-3.92.06,1.1.12,2.43.17,3.99.06,1.56.11,3.22.16,5.01.09,3.2.18,6.39.26,9.59-1.59.04-3.18.09-4.76.14-.33-9.89-.66-19.79-.99-29.69,1.85-.06,3.7-.12,5.56-.17,1.32,3.63,2.62,7.27,3.91,10.9.49,1.38.94,2.65,1.34,3.83.4,1.18.68,2.13.84,2.83.13-.74.38-1.72.75-2.92.37-1.21.76-2.48,1.17-3.83,1.14-3.68,2.29-7.36,3.47-11.04,1.82-.03,3.65-.05,5.47-.06.07,9.9.14,19.8.2,29.7-1.62.01-3.23.03-4.85.05Z"/>
        <path class="cls-3" d="m130.2,94.72c-.23,8.2-.47,16.4-.71,24.6-1.79-.06-3.57-.1-5.36-.14.18-8.2.36-16.41.55-24.61-2.12-.04-4.24-.08-6.35-.11.02-1.7.05-3.4.07-5.09,6.12.09,12.23.25,18.35.47-.06,1.69-.12,3.39-.19,5.09-2.11-.08-4.24-.15-6.35-.21Z"/>
        <path class="cls-3" d="m143.27,119.83c.45-9.89.9-19.78,1.36-29.67,1.85.09,3.7.18,5.55.28-.52,9.89-1.03,19.77-1.55,29.66-1.79-.09-3.57-.18-5.36-.26Z"/>
        <path class="cls-3" d="m157.94,120.64c.63-9.88,1.26-19.76,1.89-29.64,1.85.12,3.7.24,5.55.37-.57,8.14-1.15,16.28-1.72,24.42,3.12.22,6.24.46,9.36.71-.14,1.74-.28,3.47-.42,5.2-4.88-.4-9.77-.76-14.65-1.07Z"/>
        <path class="cls-3" d="m180.36,122.37c.9-9.86,1.8-19.72,2.71-29.58,1.85.17,3.69.34,5.54.53-.8,8.12-1.6,16.25-2.39,24.37,3.12.31,6.23.63,9.34.97-.19,1.73-.38,3.46-.57,5.19-4.87-.53-9.75-1.03-14.63-1.47Z"/>
        <path class="cls-3" d="m202.95,124.76c1.18-9.83,2.35-19.66,3.53-29.5,1.84.22,3.68.45,5.53.68-1.24,9.82-2.48,19.65-3.72,29.47-1.78-.22-3.55-.44-5.33-.66Z"/>
      </g>
    </g>
  </g>
</svg>